<svg xmlns="http://www.w3.org/2000/svg" width="22" height="22" viewBox="0 0 5.821 5.821"><g transform="translate(.53 -290.915)"><rect transform="scale(1 -1)rotate(90)" width="4.233" height="4.233" x="-295.942" y="-4.498" rx="2.117" ry="2.117" fill="#7fbbb3"/><path d="M2.778 292.767a.397.397 0 0 0-.397.397q.001.044.013.086l-.426.265a.397.397 0 1 0 0 .62l.426.265a.4.4 0 0 0-.013.086.397.397 0 1 0 .15-.31l-.427-.264a.4.4 0 0 0 .013-.087.4.4 0 0 0-.013-.087l.426-.264a.397.397 0 1 0 .248-.707" fill="#384b55"/></g></svg>
