<svg width="32" height="32" xmlns="http://www.w3.org/2000/svg">
  <path d="M16 1C7.724 1 1 7.724 1 16s6.724 15 15 15 15-6.724 15-15S24.276 1 16 1" fill="#83c092" overflow="visible"/>
  <g fill="#2e383c" stroke-linecap="round">
    <path d="M11 14c-1.108 0-2 .892-2 2v5c0 1.108.892 2 2 2h10c1.108 0 2-.892 2-2v-5c0-1.108-.892-2-2-2zm0 1h10c.554 0 1 .446 1 1v5c0 .554-.446 1-1 1H11c-.554 0-1-.446-1-1v-5c0-.554.446-1 1-1m5-8c-2.77 0-5 2.23-5 5v2h1v-2c0-2.216 1.784-4 4-4s4 1.784 4 4v2h1v-2c0-2.77-2.23-5-5-5"/>
    <path d="M16 7c-2.77 0-5 2.23-5 5v2h2v-2c0-1.662 1.338-3 3-3s3 1.338 3 3v2h2v-2c0-2.77-2.23-5-5-5m-5 7c-1.108 0-2 .892-2 2v5c0 1.108.892 2 2 2h10c1.108 0 2-.892 2-2v-5c0-1.108-.892-2-2-2z"/>
  </g>
</svg>
