<?xml version="1.0" encoding="UTF-8" standalone="no"?>
<svg viewBox="0 0 512 512" xml:space="preserve" xmlns="http://www.w3.org/2000/svg">
	<path
		class="warning"
		d="m 255.99984,0 c -0.27931,0 -6.83959,4.5887231 -14.58118,10.196098 -57.25912,41.473255 -120.7187,72.079391 -171.293023,82.614008 -11.024058,2.296252 -20.3031,3.286871 -45.171836,4.830499 -13.628047,0.84537 -24.84969974,1.60848 -24.93987074,1.69484 -0.38488,0.37418 7.31941804,48.182045 9.20533004,57.114385 17.4449527,82.65016 52.0601367,163.96235 96.1662797,225.91532 26.80083,37.64617 57.9634,69.63028 91.8922,94.31339 14.98393,10.90027 25.25133,17.25926 46.32735,28.69149 6.6706,3.61794 12.1567,6.6028 12.18857,6.62944 0.12096,0.10025 25.92736,-13.88551 29.88832,-16.19882 13.43452,-7.845 31.16569,-20.14572 43.56101,-30.21768 36.32387,-29.50908 68.35982,-66.61114 95.59283,-110.70794 35.03177,-56.72403 63.14596,-128.28795 77.92314,-198.34815 1.9134,-9.06562 9.61608,-56.808885 9.2268,-57.185195 -0.0925,-0.0907 -11.31611,-0.85571 -24.94415,-1.70108 C 473.41465,96.795234 459.01193,95.645573 455.03557,95.083769 403.0658,87.741946 333.38359,55.671372 270.57889,10.191934 262.83841,4.5866912 256.27696,0 255.99984,0 Z m 0,18.455834 8.64907,6.221348 c 10.98337,7.901494 18.46037,12.940586 28.52664,19.236623 47.21046,29.518674 95.18694,51.240525 134.49747,60.889265 18.32249,4.49656 28.09779,5.88924 50.97725,7.26658 8.15946,0.49037 14.93384,0.99243 15.0537,1.11184 0.26391,0.26437 -3.80925,26.50889 -5.35866,34.52765 -11.37046,58.82521 -37.18346,128.95996 -66.58938,180.9188 -22.25706,39.32945 -46.63286,71.67625 -75.38449,100.03294 -25.99369,25.63509 -50.34794,43.69883 -81.64307,60.55613 -4.42832,2.3858 -8.37984,4.334 -8.77792,4.33079 -0.39918,0 -4.79225,-2.21757 -9.7616,-4.92211 v -0.002 C 215.02349,471.66503 191.42076,454.09668 165.6261,428.65881 117.47324,381.17096 79.529422,319.71867 50.855871,242.78249 39.707552,212.87365 29.056964,175.64478 23.656549,147.70705 c -1.550516,-8.01769 -5.623696,-34.26327 -5.35868,-34.52764 0.119864,-0.11941 6.894249,-0.61833 15.053701,-1.10976 22.879458,-1.37734 32.654771,-2.7721 50.977252,-7.26866 C 132.66314,92.938085 195.16323,62.218877 247.35294,24.677182 Z m 0.008,56.652162 c -0.3079,0 -2.58376,1.314677 -5.05799,2.921201 -33.73966,21.915668 -73.89313,42.647703 -108.24532,55.892203 -22.22405,8.5699 -45.382025,15.3617 -64.959213,19.0534 -2.574297,0.48612 -4.516753,1.10201 -4.516753,1.43248 0,1.14813 5.698919,22.75901 8.455758,32.0666 25.685788,86.70643 65.988948,159.26667 116.441208,209.64776 10.17622,10.16152 24.06089,22.07548 35.72166,30.65286 4.80218,3.53179 21.58818,14.71621 22.09622,14.72261 0.10997,0 3.24822,-1.94312 6.97166,-4.32038 l -0.004,-0.002 c 59.90929,-38.24315 108.88887,-101.37616 144.70581,-186.51552 11.14282,-26.49325 21.55631,-57.7623 28.87671,-86.70744 1.25362,-4.95496 2.28088,-9.25926 2.28308,-9.56521 0,-0.30702 -2.02938,-0.94054 -4.5146,-1.40959 -25.3229,-4.77587 -56.53892,-14.77443 -84.57907,-27.08827 -28.89238,-12.68802 -63.36103,-31.328298 -89.39651,-48.348708 -2.04536,-1.337882 -3.97044,-2.431906 -4.27835,-2.431906 z m -0.0107,47.576254 c 0.14295,0.0106 5.23129,8.17186 11.30799,18.13934 27.5101,45.11912 55.19276,88.24948 64.33421,100.23283 3.98736,5.22574 3.9838,5.08226 0.1482,4.86799 -7.28193,-0.4051 -19.9492,-1.71756 -23.53737,-2.43608 -2.10475,-0.42109 -3.92539,-0.66908 -4.04854,-0.54968 -0.36839,0.35606 6.33837,15.00448 11.04381,24.12126 7.57334,14.67299 14.713,26.67748 24.20963,40.69487 3.2264,4.76199 5.86555,8.75963 5.86555,8.88437 0,0.73769 -27.89073,-0.33113 -41.04812,-1.572 -7.16206,-0.6748 -15.56366,-1.85758 -21.29726,-2.99824 l -1.67741,-0.33522 v 58.18668 h -50.60139 l 0.002,-29.09542 v -29.09336 l -1.6774,0.33525 c -5.73361,1.14172 -14.13734,2.32551 -21.29941,3.00031 -13.15739,1.24087 -41.04598,2.30655 -41.04598,1.56991 0,-0.12473 2.63915,-4.12237 5.86556,-8.88437 9.49662,-14.01844 16.63739,-26.01979 24.20963,-40.69278 4.70653,-9.11784 11.41221,-23.76414 11.04381,-24.12126 -0.12316,-0.1194 -1.94489,0.12859 -4.04854,0.54968 -3.58928,0.71852 -16.25654,2.02783 -23.53737,2.43399 -3.83671,0.2132 -3.83917,0.35883 0.14819,-4.86798 9.64948,-12.64964 51.78282,-78.67054 73.08207,-114.51403 1.26461,-2.12995 2.41614,-3.86566 2.55799,-3.85606 z" />
</svg>
