<svg xmlns="http://www.w3.org/2000/svg" width="35" height="200">
  <path style="fill:#2e383c;fill-opacity:1;stroke:#1e2326;stroke-width:1.5;" d="M7 857.362h28v190H7c-1.108 0-2-.892-2-2v-186c0-1.108.892-2 2-2" transform="translate(0 -852.362)"/>
  <path style="fill:#83c092;fill-opacity:1;" d="M18 94c-.554 0-1 .446-1 1v4h-4c-.554 0-1 .446-1 1s.446 1 1 1h4v4c0 .554.446 1 1 1s1-.446 1-1v-4h4c.554 0 1-.446 1-1s-.446-1-1-1h-4v-4c0-.554-.446-1-1-1m8 6a8 8 0 0 1-8 8 8 8 0 0 1-8-8 8 8 0 0 1 8-8 8 8 0 0 1 8 8"/>
</svg>
