<svg width="26" height="26" version="1.0" viewBox="0 0 18.909 18.909" xmlns="http://www.w3.org/2000/svg">
  <circle cx="9.454" cy="9.454" r="8" style="fill:#272e33"/>
  <path d="M5.85 5.85h.928a.94.94 0 0 1 .62.282l2.052 2.05 2.082-2.051c.238-.208.4-.275.618-.282h.9v.9c0 .257-.032.495-.225.675l-2.053 2.054 2.025 2.025a.92.92 0 0 1 .253.647v.9h-.9a.92.92 0 0 1-.647-.253L9.45 10.744l-2.053 2.052a.92.92 0 0 1-.647.254h-.9v-.9c0-.24.085-.478.253-.647l2.054-2.025-2.055-2.053a.81.81 0 0 1-.252-.675zm0 0" fill="#d3c6aa"/>
</svg>
