<svg width="26" height="26" version="1.0" viewBox="0 0 18.909 18.909" xmlns="http://www.w3.org/2000/svg">
  <circle cx="9.454" cy="9.454" r="8" style="fill:#4c3743"/>
  <path d="M5.5 5.5h1.031c.254.012.512.129.688.313L9.5 8.092l2.313-2.28c.265-.231.445-.305.687-.313h1v1c0 .285-.035.55-.25.75l-2.281 2.282 2.25 2.25c.187.188.281.453.281.719v1h-1c-.266 0-.531-.094-.719-.281L9.5 10.938l-2.281 2.28a1.02 1.02 0 0 1-.719.282h-1v-1c0-.266.094-.531.281-.719l2.282-2.25L5.78 7.25a.9.9 0 0 1-.28-.75zm0 0" fill="#e67e80"/>
</svg>
